M48
; DRILL file {KiCad (5.1.10)-1} date 06/01/21 20:40:15
; FORMAT={-:-/ absolute / inch / decimal}
; #@! TF.CreationDate,2021-06-01T20:40:15-04:00
; #@! TF.GenerationSoftware,Kicad,Pcbnew,(5.1.10)-1
FMAT,2
INCH
T1C0.0157
T2C0.0394
%
G90
G05
T1
X3.07Y-5.93
X3.15Y-5.93
X3.3Y-5.99
X3.65Y-5.04
X3.67Y-5.42
X3.74Y-5.04
X3.75Y-5.42
X3.82Y-5.04
X3.89Y-5.49
X3.96Y-5.21
X4.03Y-4.87
X4.03Y-4.99
X4.09Y-5.35
X4.0902Y-4.8698
X4.12Y-5.21
X4.25Y-4.53
X4.25Y-5.92
X4.2598Y-5.0827
X4.2598Y-5.1378
X4.2598Y-5.1929
X4.26Y-4.02
X4.311Y-5.0827
X4.311Y-5.1378
X4.311Y-5.1929
X4.33Y-4.02
X4.33Y-4.53
X4.33Y-5.92
X4.3661Y-5.0827
X4.3661Y-5.1378
X4.3661Y-5.1929
X4.41Y-4.02
X4.41Y-4.53
X4.41Y-5.92
X4.4134Y-5.0827
X4.4134Y-5.1378
X4.4134Y-5.1929
X4.6Y-4.89
X4.76Y-5.48
X4.84Y-3.0
X4.84Y-3.52
X4.84Y-5.03
X4.92Y-3.0
X4.92Y-3.52
X4.92Y-5.03
X4.92Y-5.42
X5.0Y-3.0
X5.0Y-3.52
X5.01Y-5.03
X5.01Y-5.41
X5.42Y-1.98
X5.42Y-4.4
X5.43Y-2.5
X5.43Y-5.95
X5.4301Y-4.1102
X5.51Y-1.98
X5.51Y-2.5
X5.51Y-4.39
X5.5118Y-4.1102
X5.52Y-5.95
X5.59Y-1.98
X5.59Y-5.95
X5.5945Y-4.1093
X5.6Y-2.5
X5.65Y-4.46
X5.7552Y-4.1148
X5.79Y-3.79
X5.79Y-3.87
X5.79Y-3.96
X5.8583Y-4.4409
X5.88Y-4.2
X6.02Y-0.97
X6.02Y-1.46
X6.02Y-3.0
X6.02Y-3.5
X6.02Y-4.91
X6.02Y-5.42
X6.0276Y-4.0591
X6.0276Y-4.1142
X6.0276Y-4.1693
X6.0748Y-4.0591
X6.0748Y-4.1142
X6.0748Y-4.1693
X6.1Y-0.97
X6.1Y-1.46
X6.1Y-3.0
X6.1Y-3.5
X6.1Y-4.9
X6.11Y-5.42
X6.1339Y-4.0591
X6.1339Y-4.1142
X6.1339Y-4.1693
X6.18Y-0.97
X6.18Y-4.9
X6.1811Y-4.0591
X6.1811Y-4.1142
X6.1811Y-4.1693
X6.19Y-1.45
X6.19Y-3.0
X6.19Y-3.5
X6.19Y-5.42
X6.4163Y-3.9637
X6.54Y-4.46
X6.61Y-1.97
X6.61Y-2.48
X6.61Y-5.95
X6.6102Y-4.1073
X6.69Y-4.1073
X6.69Y-1.97
X6.69Y-4.4
X6.7Y-2.49
X6.7Y-5.95
X6.7697Y-4.1073
X6.77Y-4.4
X6.78Y-1.97
X6.78Y-2.49
X6.78Y-5.95
X7.2Y-3.0
X7.2Y-3.51
X7.2Y-5.04
X7.2Y-5.42
X7.28Y-3.0
X7.28Y-3.51
X7.28Y-5.04
X7.28Y-5.42
X7.36Y-5.04
X7.37Y-3.0
X7.37Y-3.51
X7.42Y-5.48
X7.47Y-5.22
X7.56Y-4.83
X7.56Y-4.9
X7.56Y-4.98
X7.62Y-5.35
X7.65Y-5.22
X7.79Y-4.02
X7.79Y-4.52
X7.79Y-5.07
X7.79Y-5.13
X7.7913Y-5.18
X7.8Y-5.99
X7.84Y-5.07
X7.8425Y-5.13
X7.8425Y-5.18
X7.87Y-4.02
X7.88Y-4.52
X7.88Y-5.99
X7.89Y-5.07
X7.89Y-5.13
X7.8976Y-5.18
X7.9449Y-5.13
X7.9449Y-5.18
X7.95Y-5.07
X7.96Y-4.02
X7.96Y-4.52
X7.96Y-5.99
X8.1795Y-4.9795
X8.31Y-5.48
X8.38Y-5.03
X8.45Y-5.43
X8.47Y-5.03
X8.53Y-5.42
X8.55Y-5.03
X8.91Y-6.05
X9.05Y-6.0
X9.13Y-5.99
T2
X5.89Y-5.9
X5.89Y-6.0
X5.99Y-5.9
X5.99Y-6.0
X6.09Y-5.9
X6.09Y-6.0
X6.19Y-5.9
X6.19Y-6.0
X6.29Y-5.9
X6.29Y-6.0
T0
M30
