%TF.GenerationSoftware,KiCad,Pcbnew,(5.1.10)-1*%
%TF.CreationDate,2021-06-01T20:39:26-04:00*%
%TF.ProjectId,HabitTracker - Copy (2),48616269-7454-4726-9163-6b6572202d20,rev?*%
%TF.SameCoordinates,Original*%
%TF.FileFunction,Legend,Bot*%
%TF.FilePolarity,Positive*%
%FSLAX46Y46*%
G04 Gerber Fmt 4.6, Leading zero omitted, Abs format (unit mm)*
G04 Created by KiCad (PCBNEW (5.1.10)-1) date 2021-06-01 20:39:26*
%MOMM*%
%LPD*%
G01*
G04 APERTURE LIST*
%ADD10C,0.152400*%
%ADD11C,0.150000*%
G04 APERTURE END LIST*
D10*
%TO.C,U2*%
X152965505Y-99915300D02*
X152584504Y-99915300D01*
X152965505Y-99661300D02*
X152965505Y-99915300D01*
X152584504Y-99661300D02*
X152965505Y-99661300D01*
X152584504Y-99915300D02*
X152584504Y-99661300D01*
X157965494Y-99915300D02*
X157584494Y-99915300D01*
X157965494Y-99661300D02*
X157965494Y-99915300D01*
X157584494Y-99661300D02*
X157965494Y-99661300D01*
X157584494Y-99915300D02*
X157584494Y-99661300D01*
X161465488Y-109084700D02*
X161084487Y-109084700D01*
X161465488Y-109338700D02*
X161465488Y-109084700D01*
X161084487Y-109338700D02*
X161465488Y-109338700D01*
X161084487Y-109084700D02*
X161084487Y-109338700D01*
X156465498Y-109084700D02*
X156084498Y-109084700D01*
X156465498Y-109338700D02*
X156465498Y-109084700D01*
X156084498Y-109338700D02*
X156465498Y-109338700D01*
X156084498Y-109084700D02*
X156084498Y-109338700D01*
X151465508Y-109084700D02*
X151084508Y-109084700D01*
X151465508Y-109338700D02*
X151465508Y-109084700D01*
X151084508Y-109338700D02*
X151465508Y-109338700D01*
X151084508Y-109084700D02*
X151084508Y-109338700D01*
X162125001Y-101624918D02*
X162125001Y-107402433D01*
X147874999Y-104799918D02*
X147874999Y-107374920D01*
X147875002Y-100499919D02*
X147875002Y-104183877D01*
X147875002Y-104183877D02*
X147874999Y-104799918D01*
%TO.C,U3*%
X197838505Y-125717381D02*
X197457504Y-125717381D01*
X197838505Y-125463381D02*
X197838505Y-125717381D01*
X197457504Y-125463381D02*
X197838505Y-125463381D01*
X197457504Y-125717381D02*
X197457504Y-125463381D01*
X202838494Y-125717381D02*
X202457494Y-125717381D01*
X202838494Y-125463381D02*
X202838494Y-125717381D01*
X202457494Y-125463381D02*
X202838494Y-125463381D01*
X202457494Y-125717381D02*
X202457494Y-125463381D01*
X206338488Y-134886781D02*
X205957487Y-134886781D01*
X206338488Y-135140781D02*
X206338488Y-134886781D01*
X205957487Y-135140781D02*
X206338488Y-135140781D01*
X205957487Y-134886781D02*
X205957487Y-135140781D01*
X201338498Y-134886781D02*
X200957498Y-134886781D01*
X201338498Y-135140781D02*
X201338498Y-134886781D01*
X200957498Y-135140781D02*
X201338498Y-135140781D01*
X200957498Y-134886781D02*
X200957498Y-135140781D01*
X196338508Y-134886781D02*
X195957508Y-134886781D01*
X196338508Y-135140781D02*
X196338508Y-134886781D01*
X195957508Y-135140781D02*
X196338508Y-135140781D01*
X195957508Y-134886781D02*
X195957508Y-135140781D01*
X206998001Y-127426999D02*
X206998001Y-133204514D01*
X192747999Y-130601999D02*
X192747999Y-133177001D01*
X192748002Y-126302000D02*
X192748002Y-129985958D01*
X192748002Y-129985958D02*
X192747999Y-130601999D01*
%TO.C,U1*%
X103000002Y-130183877D02*
X102999999Y-130799918D01*
X103000002Y-126499919D02*
X103000002Y-130183877D01*
X102999999Y-130799918D02*
X102999999Y-133374920D01*
X117250001Y-127624918D02*
X117250001Y-133402433D01*
X106209508Y-135084700D02*
X106209508Y-135338700D01*
X106209508Y-135338700D02*
X106590508Y-135338700D01*
X106590508Y-135338700D02*
X106590508Y-135084700D01*
X106590508Y-135084700D02*
X106209508Y-135084700D01*
X111209498Y-135084700D02*
X111209498Y-135338700D01*
X111209498Y-135338700D02*
X111590498Y-135338700D01*
X111590498Y-135338700D02*
X111590498Y-135084700D01*
X111590498Y-135084700D02*
X111209498Y-135084700D01*
X116209487Y-135084700D02*
X116209487Y-135338700D01*
X116209487Y-135338700D02*
X116590488Y-135338700D01*
X116590488Y-135338700D02*
X116590488Y-135084700D01*
X116590488Y-135084700D02*
X116209487Y-135084700D01*
X112709494Y-125915300D02*
X112709494Y-125661300D01*
X112709494Y-125661300D02*
X113090494Y-125661300D01*
X113090494Y-125661300D02*
X113090494Y-125915300D01*
X113090494Y-125915300D02*
X112709494Y-125915300D01*
X107709504Y-125915300D02*
X107709504Y-125661300D01*
X107709504Y-125661300D02*
X108090505Y-125661300D01*
X108090505Y-125661300D02*
X108090505Y-125915300D01*
X108090505Y-125915300D02*
X107709504Y-125915300D01*
%TO.C,U2*%
D11*
X146857380Y-107548014D02*
X147666904Y-107548014D01*
X147762142Y-107595633D01*
X147809761Y-107643252D01*
X147857380Y-107738490D01*
X147857380Y-107928966D01*
X147809761Y-108024204D01*
X147762142Y-108071823D01*
X147666904Y-108119442D01*
X146857380Y-108119442D01*
X146952619Y-108548014D02*
X146905000Y-108595633D01*
X146857380Y-108690871D01*
X146857380Y-108928966D01*
X146905000Y-109024204D01*
X146952619Y-109071823D01*
X147047857Y-109119442D01*
X147143095Y-109119442D01*
X147285952Y-109071823D01*
X147857380Y-108500395D01*
X147857380Y-109119442D01*
X162097380Y-99976109D02*
X162097380Y-100547538D01*
X163097380Y-100261823D02*
X162097380Y-100261823D01*
X163097380Y-101357061D02*
X163097380Y-100880871D01*
X162097380Y-100880871D01*
X163002142Y-102261823D02*
X163049761Y-102214204D01*
X163097380Y-102071347D01*
X163097380Y-101976109D01*
X163049761Y-101833252D01*
X162954523Y-101738014D01*
X162859285Y-101690395D01*
X162668809Y-101642776D01*
X162525952Y-101642776D01*
X162335476Y-101690395D01*
X162240238Y-101738014D01*
X162145000Y-101833252D01*
X162097380Y-101976109D01*
X162097380Y-102071347D01*
X162145000Y-102214204D01*
X162192619Y-102261823D01*
X162097380Y-103166585D02*
X162097380Y-102690395D01*
X162573571Y-102642776D01*
X162525952Y-102690395D01*
X162478333Y-102785633D01*
X162478333Y-103023728D01*
X162525952Y-103118966D01*
X162573571Y-103166585D01*
X162668809Y-103214204D01*
X162906904Y-103214204D01*
X163002142Y-103166585D01*
X163049761Y-103118966D01*
X163097380Y-103023728D01*
X163097380Y-102785633D01*
X163049761Y-102690395D01*
X163002142Y-102642776D01*
X163097380Y-103690395D02*
X163097380Y-103880871D01*
X163049761Y-103976109D01*
X163002142Y-104023728D01*
X162859285Y-104118966D01*
X162668809Y-104166585D01*
X162287857Y-104166585D01*
X162192619Y-104118966D01*
X162145000Y-104071347D01*
X162097380Y-103976109D01*
X162097380Y-103785633D01*
X162145000Y-103690395D01*
X162192619Y-103642776D01*
X162287857Y-103595157D01*
X162525952Y-103595157D01*
X162621190Y-103642776D01*
X162668809Y-103690395D01*
X162716428Y-103785633D01*
X162716428Y-103976109D01*
X162668809Y-104071347D01*
X162621190Y-104118966D01*
X162525952Y-104166585D01*
X162097380Y-105071347D02*
X162097380Y-104595157D01*
X162573571Y-104547538D01*
X162525952Y-104595157D01*
X162478333Y-104690395D01*
X162478333Y-104928490D01*
X162525952Y-105023728D01*
X162573571Y-105071347D01*
X162668809Y-105118966D01*
X162906904Y-105118966D01*
X163002142Y-105071347D01*
X163049761Y-105023728D01*
X163097380Y-104928490D01*
X163097380Y-104690395D01*
X163049761Y-104595157D01*
X163002142Y-104547538D01*
X162097380Y-106023728D02*
X162097380Y-105547538D01*
X162573571Y-105499919D01*
X162525952Y-105547538D01*
X162478333Y-105642776D01*
X162478333Y-105880871D01*
X162525952Y-105976109D01*
X162573571Y-106023728D01*
X162668809Y-106071347D01*
X162906904Y-106071347D01*
X163002142Y-106023728D01*
X163049761Y-105976109D01*
X163097380Y-105880871D01*
X163097380Y-105642776D01*
X163049761Y-105547538D01*
X163002142Y-105499919D01*
X163097380Y-106499919D02*
X162097380Y-106499919D01*
X162097380Y-106738014D01*
X162145000Y-106880871D01*
X162240238Y-106976109D01*
X162335476Y-107023728D01*
X162525952Y-107071347D01*
X162668809Y-107071347D01*
X162859285Y-107023728D01*
X162954523Y-106976109D01*
X163049761Y-106880871D01*
X163097380Y-106738014D01*
X163097380Y-106499919D01*
X163002142Y-108071347D02*
X163049761Y-108023728D01*
X163097380Y-107880871D01*
X163097380Y-107785633D01*
X163049761Y-107642776D01*
X162954523Y-107547538D01*
X162859285Y-107499919D01*
X162668809Y-107452299D01*
X162525952Y-107452299D01*
X162335476Y-107499919D01*
X162240238Y-107547538D01*
X162145000Y-107642776D01*
X162097380Y-107785633D01*
X162097380Y-107880871D01*
X162145000Y-108023728D01*
X162192619Y-108071347D01*
X162811666Y-108452299D02*
X162811666Y-108928490D01*
X163097380Y-108357061D02*
X162097380Y-108690395D01*
X163097380Y-109023728D01*
X146809714Y-100142204D02*
X147476380Y-100142204D01*
X146809714Y-99713633D02*
X147333523Y-99713633D01*
X147428761Y-99761252D01*
X147476380Y-99856490D01*
X147476380Y-99999347D01*
X147428761Y-100094585D01*
X147381142Y-100142204D01*
X146857380Y-100689919D02*
X147095476Y-100689919D01*
X147000238Y-100451823D02*
X147095476Y-100689919D01*
X147000238Y-100928014D01*
X147285952Y-100547061D02*
X147095476Y-100689919D01*
X147285952Y-100832776D01*
%TO.C,U3*%
X191730380Y-133350095D02*
X192539904Y-133350095D01*
X192635142Y-133397714D01*
X192682761Y-133445333D01*
X192730380Y-133540571D01*
X192730380Y-133731047D01*
X192682761Y-133826285D01*
X192635142Y-133873904D01*
X192539904Y-133921523D01*
X191730380Y-133921523D01*
X191730380Y-134302476D02*
X191730380Y-134921523D01*
X192111333Y-134588190D01*
X192111333Y-134731047D01*
X192158952Y-134826285D01*
X192206571Y-134873904D01*
X192301809Y-134921523D01*
X192539904Y-134921523D01*
X192635142Y-134873904D01*
X192682761Y-134826285D01*
X192730380Y-134731047D01*
X192730380Y-134445333D01*
X192682761Y-134350095D01*
X192635142Y-134302476D01*
X208240380Y-125778190D02*
X208240380Y-126349619D01*
X209240380Y-126063904D02*
X208240380Y-126063904D01*
X209240380Y-127159142D02*
X209240380Y-126682952D01*
X208240380Y-126682952D01*
X209145142Y-128063904D02*
X209192761Y-128016285D01*
X209240380Y-127873428D01*
X209240380Y-127778190D01*
X209192761Y-127635333D01*
X209097523Y-127540095D01*
X209002285Y-127492476D01*
X208811809Y-127444857D01*
X208668952Y-127444857D01*
X208478476Y-127492476D01*
X208383238Y-127540095D01*
X208288000Y-127635333D01*
X208240380Y-127778190D01*
X208240380Y-127873428D01*
X208288000Y-128016285D01*
X208335619Y-128063904D01*
X208240380Y-128968666D02*
X208240380Y-128492476D01*
X208716571Y-128444857D01*
X208668952Y-128492476D01*
X208621333Y-128587714D01*
X208621333Y-128825809D01*
X208668952Y-128921047D01*
X208716571Y-128968666D01*
X208811809Y-129016285D01*
X209049904Y-129016285D01*
X209145142Y-128968666D01*
X209192761Y-128921047D01*
X209240380Y-128825809D01*
X209240380Y-128587714D01*
X209192761Y-128492476D01*
X209145142Y-128444857D01*
X209240380Y-129492476D02*
X209240380Y-129682952D01*
X209192761Y-129778190D01*
X209145142Y-129825809D01*
X209002285Y-129921047D01*
X208811809Y-129968666D01*
X208430857Y-129968666D01*
X208335619Y-129921047D01*
X208288000Y-129873428D01*
X208240380Y-129778190D01*
X208240380Y-129587714D01*
X208288000Y-129492476D01*
X208335619Y-129444857D01*
X208430857Y-129397238D01*
X208668952Y-129397238D01*
X208764190Y-129444857D01*
X208811809Y-129492476D01*
X208859428Y-129587714D01*
X208859428Y-129778190D01*
X208811809Y-129873428D01*
X208764190Y-129921047D01*
X208668952Y-129968666D01*
X208240380Y-130873428D02*
X208240380Y-130397238D01*
X208716571Y-130349619D01*
X208668952Y-130397238D01*
X208621333Y-130492476D01*
X208621333Y-130730571D01*
X208668952Y-130825809D01*
X208716571Y-130873428D01*
X208811809Y-130921047D01*
X209049904Y-130921047D01*
X209145142Y-130873428D01*
X209192761Y-130825809D01*
X209240380Y-130730571D01*
X209240380Y-130492476D01*
X209192761Y-130397238D01*
X209145142Y-130349619D01*
X208240380Y-131825809D02*
X208240380Y-131349619D01*
X208716571Y-131302000D01*
X208668952Y-131349619D01*
X208621333Y-131444857D01*
X208621333Y-131682952D01*
X208668952Y-131778190D01*
X208716571Y-131825809D01*
X208811809Y-131873428D01*
X209049904Y-131873428D01*
X209145142Y-131825809D01*
X209192761Y-131778190D01*
X209240380Y-131682952D01*
X209240380Y-131444857D01*
X209192761Y-131349619D01*
X209145142Y-131302000D01*
X209240380Y-132302000D02*
X208240380Y-132302000D01*
X208240380Y-132540095D01*
X208288000Y-132682952D01*
X208383238Y-132778190D01*
X208478476Y-132825809D01*
X208668952Y-132873428D01*
X208811809Y-132873428D01*
X209002285Y-132825809D01*
X209097523Y-132778190D01*
X209192761Y-132682952D01*
X209240380Y-132540095D01*
X209240380Y-132302000D01*
X209145142Y-133873428D02*
X209192761Y-133825809D01*
X209240380Y-133682952D01*
X209240380Y-133587714D01*
X209192761Y-133444857D01*
X209097523Y-133349619D01*
X209002285Y-133302000D01*
X208811809Y-133254380D01*
X208668952Y-133254380D01*
X208478476Y-133302000D01*
X208383238Y-133349619D01*
X208288000Y-133444857D01*
X208240380Y-133587714D01*
X208240380Y-133682952D01*
X208288000Y-133825809D01*
X208335619Y-133873428D01*
X208954666Y-134254380D02*
X208954666Y-134730571D01*
X209240380Y-134159142D02*
X208240380Y-134492476D01*
X209240380Y-134825809D01*
X191682714Y-125944285D02*
X192349380Y-125944285D01*
X191682714Y-125515714D02*
X192206523Y-125515714D01*
X192301761Y-125563333D01*
X192349380Y-125658571D01*
X192349380Y-125801428D01*
X192301761Y-125896666D01*
X192254142Y-125944285D01*
X191730380Y-126492000D02*
X191968476Y-126492000D01*
X191873238Y-126253904D02*
X191968476Y-126492000D01*
X191873238Y-126730095D01*
X192158952Y-126349142D02*
X191968476Y-126492000D01*
X192158952Y-126634857D01*
%TO.C,U1*%
X101423580Y-131719214D02*
X102233104Y-131719214D01*
X102328342Y-131766833D01*
X102375961Y-131814452D01*
X102423580Y-131909690D01*
X102423580Y-132100166D01*
X102375961Y-132195404D01*
X102328342Y-132243023D01*
X102233104Y-132290642D01*
X101423580Y-132290642D01*
X102423580Y-133290642D02*
X102423580Y-132719214D01*
X102423580Y-133004928D02*
X101423580Y-133004928D01*
X101566438Y-132909690D01*
X101661676Y-132814452D01*
X101709295Y-132719214D01*
X102083980Y-126435919D02*
X102322076Y-126435919D01*
X102226838Y-126197823D02*
X102322076Y-126435919D01*
X102226838Y-126674014D01*
X102512552Y-126293061D02*
X102322076Y-126435919D01*
X102512552Y-126578776D01*
%TD*%
M02*
